<mxfile host="Electron" agent="Mozilla/5.0 (X11; Linux x86_64) AppleWebKit/537.36 (KHTML, like Gecko) draw.io/25.0.2 Chrome/128.0.6613.186 Electron/32.2.5 Safari/537.36" version="25.0.2">
  <diagram name="Page-1" id="2KOL9bbmzUcue9fHjw6y">
    <mxGraphModel dx="819" dy="477" grid="1" gridSize="10" guides="1" tooltips="1" connect="1" arrows="1" fold="1" page="1" pageScale="1" pageWidth="850" pageHeight="1100" math="0" shadow="0">
      <root>
        <mxCell id="0" />
        <mxCell id="1" parent="0" />
        <mxCell id="gBzMidyRwyAVYiLGSHv3-1" value="" style="rounded=1;whiteSpace=wrap;html=1;fillColor=#dae8fc;strokeColor=#6c8ebf;" vertex="1" parent="1">
          <mxGeometry x="30" y="75" width="410" height="195" as="geometry" />
        </mxCell>
        <mxCell id="gBzMidyRwyAVYiLGSHv3-3" value="&lt;b&gt;Events about User Profiles&lt;/b&gt;&lt;div&gt;ProfileCreated&lt;/div&gt;&lt;div&gt;ViewProfile&lt;/div&gt;&lt;div&gt;ProfileDeleted&lt;/div&gt;" style="text;html=1;align=left;verticalAlign=middle;whiteSpace=wrap;rounded=0;" vertex="1" parent="1">
          <mxGeometry x="50" y="90" width="180" height="55" as="geometry" />
        </mxCell>
        <mxCell id="gBzMidyRwyAVYiLGSHv3-4" value="&lt;b&gt;Events about Charging Stations&lt;/b&gt;&lt;div&gt;&lt;span style=&quot;background-color: initial;&quot;&gt;StationSelected&lt;/span&gt;&lt;/div&gt;&lt;div&gt;RatingSubmitted&lt;/div&gt;&lt;div&gt;UpdateAverageRating&lt;/div&gt;&lt;div&gt;&lt;span style=&quot;background-color: initial;&quot;&gt;UpdateAvailability&lt;/span&gt;&lt;/div&gt;" style="text;html=1;align=left;verticalAlign=middle;whiteSpace=wrap;rounded=0;" vertex="1" parent="1">
          <mxGeometry x="50" y="180" width="260" height="60" as="geometry" />
        </mxCell>
        <mxCell id="gBzMidyRwyAVYiLGSHv3-7" value="&lt;b&gt;Events about the Map&lt;/b&gt;&lt;div&gt;OpenMap&lt;/div&gt;&lt;div&gt;FindAreaByPostalcode&lt;/div&gt;&lt;div&gt;ZoomToArea&lt;/div&gt;&lt;div&gt;UpdateMap&lt;/div&gt;&lt;div&gt;CloseMap&lt;/div&gt;" style="text;html=1;align=left;verticalAlign=middle;whiteSpace=wrap;rounded=0;" vertex="1" parent="1">
          <mxGeometry x="260" y="90" width="140" height="85" as="geometry" />
        </mxCell>
      </root>
    </mxGraphModel>
  </diagram>
</mxfile>
